<svg xmlns="http://www.w3.org/2000/svg" viewBox="0 0 1130.43 88.09"><defs><style>.cls-1{fill:#3e5a80;}</style></defs><g id="Layer_2" data-name="Layer 2"><g id="Layer_1-2" data-name="Layer 1"><path class="cls-1" d="M227.58.91h0A260.26,260.26,0,0,1,371.71,44.72C460.09,103.53,564.76,86.08,565.43,83c.93-4.17-79.92-27.41-102.37-33.61C196.18-24.31-10.77,25.92.43,16.48,14.22,4.86,125-17.28,371.75,23.74c65.58,10.91,129.59,69.12,230.16,58,9-1,30.61-5.58,55.16-11.41,79.26-18.83,97.11-33.59,133.15-41.85,95.89-22,130.85,45.55,252.21,34.31a325.8,325.8,0,0,0,76.28-16.55,8.82,8.82,0,0,1,11.72,8.33V79.27a8.82,8.82,0,0,1-9.5,8.8l-894-69.55C215.62,17.65,216.27.91,227.58.91Z"/></g></g></svg>