<svg xmlns="http://www.w3.org/2000/svg" viewBox="0 0 512 512"><defs><style>.cls-1{fill:#3e5a80;}.cls-2{fill:#fff;}.cls-3{fill:#2f4858;}.cls-4{fill:#2f445b;}.cls-5{fill:#eef5f6;}.cls-6{fill:#deecf1;}.cls-7{fill:#fedf30;}</style></defs><g id="Layer_2" data-name="Layer 2"><g id="Layer_1-2" data-name="Layer 1"><path class="cls-1" d="M503.7,61.1c0,29.6-24,102.47-53.6,102.47S396.5,90.7,396.5,61.1a53.6,53.6,0,1,1,107.2,0Z"/><circle class="cls-2" cx="450.1" cy="60.38" r="20.29"/><circle class="cls-1" cx="30.63" cy="85.53" r="22.33"/><path class="cls-1" d="M247.21,186.12a20.29,20.29,0,0,0-40.58,0v33.67h40.59V186.12Z"/><path class="cls-1" d="M432.81,294.7A175.48,175.48,0,0,1,504.5,436.2,21.48,21.48,0,0,1,483,457.66H29A21.48,21.48,0,0,1,7.5,436.2V405.49A175.52,175.52,0,0,1,49,292.12l28.82-34.05A159.27,159.27,0,0,1,199.27,201.7l54.39,0A159.24,159.24,0,0,1,348,232.49l24.23,33.14Z"/><path class="cls-3" d="M432.81,294.7l-58.18-32.11L348,232.49a159.31,159.31,0,0,0-94.33-30.84l-36.66,0a159.17,159.17,0,0,1,91,30.8l84.82,62.21A175.48,175.48,0,0,1,464.5,436.2,21.48,21.48,0,0,1,443,457.66h40A21.48,21.48,0,0,0,504.5,436.2,175.48,175.48,0,0,0,432.81,294.7Z"/><ellipse class="cls-4" cx="112.66" cy="444.45" rx="60.69" ry="60.05"/><path class="cls-4" d="M112.66,384.41a61.22,61.22,0,0,0-20,3.35,59.84,59.84,0,0,1,0,113.39,61.22,61.22,0,0,0,20,3.35c33.52,0,60.69-26.89,60.69-60.05S146.18,384.41,112.66,384.41Z"/><ellipse class="cls-4" cx="112.66" cy="444.45" rx="27.07" ry="26.5"/><ellipse class="cls-4" cx="389.56" cy="444.45" rx="60.69" ry="60.05"/><path class="cls-4" d="M389.56,384.41a61.22,61.22,0,0,0-20,3.35,59.84,59.84,0,0,1,0,113.39,61.22,61.22,0,0,0,20,3.35c33.52,0,60.69-26.89,60.69-60.05S423.08,384.41,389.56,384.41Z"/><ellipse class="cls-4" cx="389.56" cy="444.45" rx="27.07" ry="26.5"/><path class="cls-5" d="M431.17,293.5l-84.31-61.84H330.15a12.06,12.06,0,0,0-11.36,16.1l16.26,45.73Z"/><path class="cls-6" d="M346.86,231.66H330.15a12,12,0,0,0-11.55,8.61l72.57,53.22h40Z"/><path class="cls-5" d="M200,231.7a129,129,0,0,0-98.54,45.75L87.86,293.5H302.67l-14.53-42.31a28.88,28.88,0,0,0-27.34-19.5Z"/><path class="cls-7" d="M486.86,359.53H466.22A11.22,11.22,0,0,0,455,370.76a22.36,22.36,0,0,0,22.37,22.36h21.76S495,374.35,486.86,359.53Z"/><path d="M198.42,106.07c-6.86,6.86,3.75,17.47,10.61,10.61a22.25,22.25,0,0,1,31.42,0c6.85,6.86,17.46-3.75,10.6-10.61a37.26,37.26,0,0,0-52.63,0Z"/><path d="M269.22,94.46c6.3,0,9.76-8.35,5.3-12.8a70.49,70.49,0,0,0-99.57,0c-6.86,6.85,3.75,17.46,10.61,10.6a55.48,55.48,0,0,1,78.36,0,7.44,7.44,0,0,0,5.3,2.2Z"/><path d="M161,66.31a90.05,90.05,0,0,1,127.44,0c6.85,6.86,17.46-3.75,10.6-10.6a105,105,0,0,0-148.65,0c-6.86,6.85,3.75,17.46,10.61,10.6Z"/><path d="M450.1,171.07c20.68,0,35.75-24.26,44.75-44.6,9.63-21.74,16.35-48.62,16.35-65.37a61.1,61.1,0,1,0-122.2,0c0,16.75,6.72,43.63,16.34,65.37C414.34,146.81,429.42,171.07,450.1,171.07ZM450.1,15a46.15,46.15,0,0,1,46.1,46.1c0,12.56-5.18,37-15.06,59.3s-21.49,35.67-31,35.67-21.16-13.34-31.05-35.67S404,73.66,404,61.1A46.15,46.15,0,0,1,450.1,15Z"/><path d="M450.1,88.18a27.8,27.8,0,1,0-27.79-27.8A27.83,27.83,0,0,0,450.1,88.18Zm0-40.59a12.8,12.8,0,1,1-12.79,12.79A12.81,12.81,0,0,1,450.1,47.59Z"/><path d="M30.63,115.36A29.83,29.83,0,1,0,.81,85.53,29.86,29.86,0,0,0,30.63,115.36Zm0-44.65A14.83,14.83,0,1,1,15.81,85.53,14.84,14.84,0,0,1,30.63,70.71Z"/><circle cx="135.9" cy="85.53" r="7.5"/><circle cx="108.9" cy="85.53" r="7.5"/><path d="M81.91,93a7.5,7.5,0,1,0-7.51-7.5A7.49,7.49,0,0,0,81.91,93Z"/><circle cx="310.72" cy="85.53" r="7.5"/><circle cx="337.72" cy="85.53" r="7.5"/><circle cx="364.72" cy="85.53" r="7.5"/><path d="M506.56,392.14c-7.55-39.67-38.05-80.55-69.32-103.48l-84.81-62.22-.86-.61a7.11,7.11,0,0,0-.65-.47,165.52,165.52,0,0,0-96.21-31.2v-8a27.79,27.79,0,0,0-55.58,0v8.08a166.47,166.47,0,0,0-127,59l-28.82,34A183.17,183.17,0,0,0,0,405.49V436.2a29,29,0,0,0,29,29H47.76a68.38,68.38,0,0,0,129.8,0h147.1a68.38,68.38,0,0,0,129.8,0H483a29,29,0,0,0,29-29C512,421.22,509.31,406.61,506.56,392.14Zm-17.43-6.52H477.37a14.89,14.89,0,0,1-14.87-14.87,3.73,3.73,0,0,1,3.72-3.72H482a168.39,168.39,0,0,1,7.13,18.59ZM326.43,241.1a4.53,4.53,0,0,1,3.73-1.93H344.4L408.26,286H340.34l-14.48-40.74A4.52,4.52,0,0,1,326.43,241.1Zm-99.51-67.77a12.81,12.81,0,0,1,12.79,12.79v8l-25.58,0v-8.07a12.81,12.81,0,0,1,12.79-12.79ZM112.66,497c-29.33,0-53.19-23.57-53.19-52.55s23.86-52.54,53.19-52.54,53.19,23.57,53.19,52.54S142,497,112.66,497ZM483,450.16H457.49a67.62,67.62,0,0,0-13.6-46.52A7.5,7.5,0,1,0,432,412.77a51.59,51.59,0,0,1,10.77,31.68c0,29-23.86,52.55-53.19,52.55s-53.2-23.57-53.2-52.55,23.87-52.54,53.2-52.54a53.88,53.88,0,0,1,13.89,1.82,7.5,7.5,0,0,0,3.87-14.5,69.21,69.21,0,0,0-17.76-2.32c-39.07,0-71.26,34.12-67.93,73.25h-141c3.32-39.13-28.86-73.25-67.93-73.25S41.4,411,44.73,450.16H29a14,14,0,0,1-14-14V405.49A168.16,168.16,0,0,1,54.76,297l28.82-34.05A151.47,151.47,0,0,1,199.27,209.2l54.39,0h.15a150.69,150.69,0,0,1,68.88,16.51,20,20,0,0,0-11,24.62L328,296a7.5,7.5,0,0,0,7.07,5H428.7a167.69,167.69,0,0,1,45.61,51h-8.09a18.74,18.74,0,0,0-18.72,18.72,29.9,29.9,0,0,0,29.87,29.87h15.77A166.94,166.94,0,0,1,497,436.2a14,14,0,0,1-14,14Z"/><path d="M112.66,410.45c-19.61,0-36.17,17.28-34.43,37a7.5,7.5,0,0,0,14.94-1.32c-1-11.07,8.52-20.65,19.49-20.65,10.79,0,19.57,8.53,19.57,19a19.23,19.23,0,0,1-18.6,19,7.5,7.5,0,0,0,.34,15h.36a34.21,34.21,0,0,0,32.9-34C147.23,425.71,131.72,410.45,112.66,410.45Z"/><path d="M389.56,410.45c-19.06,0-34.57,15.26-34.57,34s15.51,34,34.57,34,34.57-15.25,34.57-34S408.62,410.45,389.56,410.45Zm0,53c-10.79,0-19.57-8.52-19.57-19s8.78-19,19.57-19,19.57,8.53,19.57,19S400.35,463.45,389.56,463.45Z"/><path d="M295.23,248.76a36.4,36.4,0,0,0-34.42-24.57H200a136.92,136.92,0,0,0-41.27,6.4l0,0a136.46,136.46,0,0,0-63,42l-13.58,16A7.56,7.56,0,0,0,87.86,301H302.67q8.65-1.32,7.09-9.94ZM107.17,282.3a121.77,121.77,0,0,1,46.26-33.81V286H104Zm61.26,3.7V243.39A121.9,121.9,0,0,1,200,239.2h60.81A21.38,21.38,0,0,1,281,253.63L292.16,286Z"/><path d="M477.33,412a7.5,7.5,0,0,0-7.5,7.5v10.34a7.5,7.5,0,0,0,15,0V419.45A7.5,7.5,0,0,0,477.33,412Z"/><path d="M160.93,317.06a7.5,7.5,0,0,0-7.5,7.5V367.3a7.5,7.5,0,0,0,15,0V324.56A7.5,7.5,0,0,0,160.93,317.06Z"/></g></g></svg>